<?xml version="1.0"?>
<svg xmlns="http://www.w3.org/2000/svg" xmlns:xlink="http://www.w3.org/1999/xlink" xmlns:svgjs="http://svgjs.com/svgjs" version="1.1" width="512" height="512" x="0" y="0" viewBox="0 0 64 64" style="enable-background:new 0 0 512 512" xml:space="preserve" class=""><g><g xmlns="http://www.w3.org/2000/svg"><path d="m32 40c4.411 0 8-3.589 8-8s-3.589-8-8-8-8 3.589-8 8 3.589 8 8 8zm0-14c3.309 0 6 2.691 6 6s-2.691 6-6 6-6-2.691-6-6 2.691-6 6-6z" fill="#ffffff" data-original="#000000"/><path d="m32 36c2.206 0 4-1.794 4-4s-1.794-4-4-4-4 1.794-4 4 1.794 4 4 4zm0-6c1.103 0 2 .897 2 2s-.897 2-2 2-2-.897-2-2 .897-2 2-2z" fill="#ffffff" data-original="#000000"/><path d="m25.43 43.814 1.748-.836c.156.069.313.135.471.196l.643 1.826h7.415l.645-1.826c.157-.062.314-.127.471-.196l1.748.836 5.244-5.244-.836-1.748c.069-.156.135-.313.196-.471l1.825-.643v-7.415l-1.826-.645c-.062-.157-.127-.314-.196-.471l.836-1.748-5.244-5.244-1.748.836c-.156-.069-.313-.135-.471-.196l-.643-1.825h-7.415l-.645 1.826c-.157.062-.314.127-.471.196l-1.748-.836-5.244 5.244.836 1.748c-.069.156-.135.313-.196.471l-1.825.643v7.415l1.826.645c.062.157.127.314.196.471l-.836 1.748zm-4.43-9.522v-4.585l1.392-.491.157-.458c.131-.383.292-.769.478-1.147l.213-.435-.638-1.334 3.242-3.242 1.334.638.435-.213c.378-.186.764-.346 1.147-.478l.458-.157.49-1.39h4.585l.491 1.392.458.157c.383.131.769.292 1.147.478l.435.213 1.334-.638 3.242 3.242-.638 1.334.213.435c.186.378.346.764.478 1.147l.157.458 1.39.49v4.585l-1.392.491-.157.458c-.131.383-.292.769-.478 1.147l-.213.435.638 1.334-3.242 3.242-1.334-.638-.435.213c-.378.186-.764.346-1.147.478l-.458.157-.49 1.39h-4.585l-.491-1.392-.458-.157c-.383-.131-.769-.292-1.147-.478l-.435-.213-1.334.638-3.242-3.242.638-1.334-.213-.435c-.186-.378-.346-.764-.478-1.147l-.157-.458z" fill="#ffffff" data-original="#000000"/><path d="m14 47h-10c-1.654 0-3 1.346-3 3v10c0 1.654 1.346 3 3 3h10c1.654 0 3-1.346 3-3v-10c0-1.654-1.346-3-3-3zm1 13c0 .551-.449 1-1 1h-10c-.551 0-1-.449-1-1v-10c0-.551.449-1 1-1h10c.551 0 1 .449 1 1z" fill="#ffffff" data-original="#000000"/><path d="m60 24h-10c-1.654 0-3 1.346-3 3v10c0 1.654 1.346 3 3 3h10c1.654 0 3-1.346 3-3v-10c0-1.654-1.346-3-3-3zm1 13c0 .551-.449 1-1 1h-10c-.551 0-1-.449-1-1v-10c0-.551.449-1 1-1h10c.551 0 1 .449 1 1z" fill="#ffffff" data-original="#000000"/><path d="m10 17h10c1.654 0 3-1.346 3-3v-10c0-1.654-1.346-3-3-3h-10c-1.654 0-3 1.346-3 3v10c0 1.654 1.346 3 3 3zm-1-13c0-.551.449-1 1-1h10c.551 0 1 .449 1 1v10c0 .551-.449 1-1 1h-10c-.551 0-1-.449-1-1z" fill="#ffffff" data-original="#000000"/><path d="m7 56.586-1.293-1.293-1.414 1.414 2.707 2.707 6.707-6.707-1.414-1.414z" fill="#ffffff" data-original="#000000"/><path d="m19.707 6.707-1.414-1.414-5.293 5.293-1.293-1.293-1.414 1.414 2.707 2.707z" fill="#ffffff" data-original="#000000"/><path d="m53 33.586-1.293-1.293-1.414 1.414 2.707 2.707 6.707-6.707-1.414-1.414z" fill="#ffffff" data-original="#000000"/><path d="m46.757 45.03.485 1.94 5.684-1.421c-4.591 7.112-12.407 11.451-20.926 11.451-3.659 0-7.185-.772-10.479-2.295l-.839 1.815c3.559 1.646 7.367 2.48 11.318 2.48 9.059 0 17.379-4.54 22.367-12.004l.641 5.128 1.984-.248-1.14-9.12z" fill="#ffffff" data-original="#000000"/><path d="m11.973 36.232-1.945-.465-1.22 5.106c-1.196-2.96-1.808-5.935-1.808-8.873 0-3.69.785-7.243 2.333-10.562l-1.813-.846c-1.672 3.586-2.52 7.424-2.52 11.408 0 3.183.655 6.394 1.935 9.579l-4.452-2.455-.966 1.752 8.258 4.552z" fill="#ffffff" data-original="#000000"/><path d="m33.555 9.168-3.252-2.168h1.697c9.355 0 17.856 5.158 22.184 13.461l1.773-.925c-4.673-8.966-13.853-14.536-23.957-14.536h-1.697l3.252-2.168-1.109-1.664-7.249 4.832 7.248 4.832z" fill="#ffffff" data-original="#000000"/></g></g></svg>
