<?xml version="1.0"?>
<svg xmlns="http://www.w3.org/2000/svg" xmlns:xlink="http://www.w3.org/1999/xlink" xmlns:svgjs="http://svgjs.com/svgjs" version="1.1" width="512" height="512" x="0" y="0" viewBox="0 0 512 512" style="enable-background:new 0 0 512 512" xml:space="preserve" class=""><g><g xmlns="http://www.w3.org/2000/svg"><g><path d="m504.5 455.583h-14.72v-309.693c0-4.143-3.357-7.5-7.5-7.5h-64.65c-4.143 0-7.5 3.357-7.5 7.5v61.83c0 4.143 3.357 7.5 7.5 7.5s7.5-3.357 7.5-7.5v-54.33h49.65v302.19h-49.65v-212.86c0-4.143-3.357-7.5-7.5-7.5s-7.5 3.357-7.5 7.5v212.863h-49.654v-188.472c0-4.143-3.357-7.5-7.5-7.5h-64.65c-4.143 0-7.5 3.357-7.5 7.5v188.472h-49.656v-123.073c0-4.143-3.358-7.5-7.5-7.5s-7.5 3.357-7.5 7.5v123.07h-49.65v-251.68h49.65v93.609c0 4.143 3.358 7.5 7.5 7.5s7.5-3.357 7.5-7.5v-101.109c0-4.143-3.358-7.5-7.5-7.5h-64.65c-4.142 0-7.5 3.357-7.5 7.5v259.183h-49.65v-44.583c0-4.143-3.358-7.5-7.5-7.5s-7.5 3.357-7.5 7.5v44.58h-49.65v-120.36h49.65v40.78c0 4.143 3.358 7.5 7.5 7.5s7.5-3.357 7.5-7.5v-48.28c0-4.143-3.358-7.5-7.5-7.5h-64.65c-4.142 0-7.5 3.357-7.5 7.5v127.863h-14.72c-4.142 0-7.5 3.357-7.5 7.5v32.325c0 4.143 3.358 7.5 7.5 7.5h497c4.143 0 7.5-3.357 7.5-7.5v-32.325c0-4.143-3.357-7.5-7.5-7.5zm-208.675-180.972h49.65v180.972h-49.65zm201.175 213.297h-482v-17.325h482z" fill="#ffffff" data-original="#000000" class=""/><path d="m62.049 270.571c21.959 0 39.825-17.865 39.825-39.825 0-8.383-2.61-16.165-7.051-22.588l74.441-75.612c6.325 4.231 13.921 6.704 22.085 6.704 12.344 0 23.394-5.645 30.704-14.49l60.684 33.194c-1.237 3.842-1.913 7.934-1.913 12.182 0 21.96 17.865 39.825 39.825 39.825s39.825-17.865 39.825-39.825c0-7.815-2.272-15.106-6.177-21.263l72.267-67.748c6.572 4.785 14.652 7.617 23.385 7.617 21.96 0 39.825-17.865 39.825-39.825s-17.863-39.825-39.823-39.825-39.825 17.865-39.825 39.825c0 7.817 2.273 15.109 6.179 21.267l-72.267 67.746c-6.572-4.786-14.653-7.619-23.388-7.619-12.344 0-23.393 5.645-30.704 14.489l-60.685-33.193c1.237-3.842 1.913-7.933 1.913-12.181 0-21.96-17.866-39.825-39.825-39.825s-39.825 17.865-39.825 39.825c0 8.386 2.611 16.169 7.055 22.594l-74.439 75.61c-6.326-4.234-13.924-6.708-22.091-6.708-21.959 0-39.825 17.865-39.825 39.825s17.865 39.824 39.825 39.824zm387.902-246.479c13.688 0 24.825 11.137 24.825 24.825s-11.137 24.825-24.825 24.825-24.825-11.137-24.825-24.825 11.137-24.825 24.825-24.825zm-129.301 121.219c13.688 0 24.825 11.137 24.825 24.825s-11.137 24.825-24.825 24.825-24.825-11.137-24.825-24.825 11.137-24.825 24.825-24.825zm-129.3-70.711c13.688 0 24.825 11.137 24.825 24.825s-11.137 24.825-24.825 24.825-24.825-11.137-24.825-24.825 11.136-24.825 24.825-24.825zm-129.301 131.321c13.688 0 24.825 11.137 24.825 24.825s-11.137 24.825-24.825 24.825-24.825-11.137-24.825-24.825 11.136-24.825 24.825-24.825z" fill="#ffffff" data-original="#000000" class=""/></g></g></g></svg>
