<?xml version="1.0"?>
<svg xmlns="http://www.w3.org/2000/svg" xmlns:xlink="http://www.w3.org/1999/xlink" xmlns:svgjs="http://svgjs.com/svgjs" version="1.1" width="512" height="512" x="0" y="0" viewBox="0 0 512 512" style="enable-background:new 0 0 512 512" xml:space="preserve" class=""><g><path xmlns="http://www.w3.org/2000/svg" d="m474.156 357.542c3.098-8.188 4.804-17.047 4.804-26.296 0-34.338-23.384-63.336-55.163-72.169v-59.901h17.162c20.717 0 37.572-16.767 37.572-37.376 0-5.573-4.517-10.09-10.09-10.09-5.572 0-10.09 4.517-10.09 10.09 0 9.482-7.802 17.196-17.392 17.196h-27.252c-5.573 0-10.09 4.517-10.09 10.09v52.564l-58.345-59.621c-1.898-1.94-4.497-3.033-7.211-3.033h-164.121c-2.713 0-5.312 1.093-7.21 3.032l-58.373 59.628v-52.57c0-5.573-4.517-10.09-10.09-10.09h-29.283c-9.605 0-17.42-7.714-17.42-17.196v-124.451c0-9.467 7.814-17.17 17.42-17.17h371.973c9.59 0 17.392 7.702 17.392 17.17v34.682c0 5.573 4.518 10.09 10.09 10.09 5.573 0 10.09-4.517 10.09-10.09v-34.682c.001-20.594-16.854-37.349-37.571-37.349h-371.974c-20.732 0-37.599 16.755-37.599 37.349v124.45c0 20.609 16.867 37.376 37.599 37.376h19.192v59.907c-31.781 8.841-55.164 37.833-55.164 72.164 0 9.255 1.709 18.118 4.811 26.31-22.302 19.921-34.95 47.841-34.95 77.766v36.808c.001 21.984 17.983 39.87 40.087 39.87h20.312c5.573 0 10.09-4.517 10.09-10.09 0-5.572-4.517-10.09-10.09-10.09h-20.312c-10.976 0-19.906-8.833-19.906-19.691v-36.808c0-22.54 8.925-43.686 24.8-59.496 13.77 18.429 35.836 30.397 60.668 30.397s46.898-11.969 60.668-30.397c15.875 15.81 24.8 36.957 24.8 59.496v36.808c0 10.858-8.93 19.691-19.906 19.691h-20.312c-5.573 0-10.09 4.517-10.09 10.09s4.517 10.09 10.09 10.09h20.312c22.103 0 40.086-17.886 40.086-39.871v-36.808c0-29.925-12.648-57.845-34.951-77.766 3.102-8.192 4.811-17.055 4.811-26.31 0-37.035-27.209-67.863-62.822-73.871l56.975-58.199h155.635l56.958 58.203c-35.605 6.016-62.804 36.839-62.804 73.868 0 9.249 1.706 18.107 4.805 26.295-22.315 19.939-34.972 47.867-34.972 77.781v36.808c0 21.985 17.995 39.871 40.114 39.871h131.121c22.104 0 40.087-17.886 40.087-39.871v-36.808c-.001-29.913-12.657-57.84-34.971-77.78zm-310.306-26.296c0 30.215-24.82 54.798-55.329 54.798s-55.329-24.582-55.329-54.798c0-30.201 24.82-54.77 55.329-54.77s55.329 24.569 55.329 54.77zm239.629-54.771c30.493 0 55.3 24.57 55.3 54.77 0 30.215-24.807 54.798-55.3 54.798-30.509 0-55.33-24.582-55.33-54.798.001-30.2 24.822-54.77 55.33-54.77zm85.467 195.654c0 10.858-8.93 19.691-19.907 19.691h-131.121c-10.992 0-19.935-8.833-19.935-19.691v-36.808c0-22.53 8.933-43.682 24.819-59.508 13.77 18.435 35.84 30.409 60.678 30.409 24.826 0 46.886-11.972 60.651-30.405 15.884 15.826 24.816 36.977 24.816 59.504v36.808z" fill="#ffffff" data-original="#000000" class=""/><path xmlns="http://www.w3.org/2000/svg" d="m113.407 134.486h283.101c5.573 0 10.09-4.518 10.09-10.09s-4.517-10.09-10.09-10.09h-283.101c-5.573 0-10.09 4.518-10.09 10.09s4.517 10.09 10.09 10.09z" fill="#ffffff" data-original="#000000" class=""/><path xmlns="http://www.w3.org/2000/svg" d="m113.407 74.867h29.824c5.572 0 10.09-4.518 10.09-10.09s-4.518-10.09-10.09-10.09h-29.824c-5.573 0-10.09 4.518-10.09 10.09s4.517 10.09 10.09 10.09z" fill="#ffffff" data-original="#000000" class=""/><path xmlns="http://www.w3.org/2000/svg" d="m396.507 54.687h-182.744c-5.573 0-10.09 4.518-10.09 10.09s4.517 10.09 10.09 10.09h182.744c5.573 0 10.09-4.518 10.09-10.09s-4.517-10.09-10.09-10.09z" fill="#ffffff" data-original="#000000" class=""/><path xmlns="http://www.w3.org/2000/svg" d="m468.44 106.825c-5.573 0-10.09 4.517-10.09 10.09v.056c0 5.573 4.517 10.062 10.09 10.062s10.09-4.545 10.09-10.118-4.518-10.09-10.09-10.09z" fill="#ffffff" data-original="#000000" class=""/><path xmlns="http://www.w3.org/2000/svg" d="m108.522 491.82h-.058c-5.573 0-10.061 4.517-10.061 10.09s4.546 10.09 10.119 10.09 10.09-4.517 10.09-10.09c-.001-5.572-4.518-10.09-10.09-10.09z" fill="#ffffff" data-original="#000000" class=""/></g></svg>
