<?xml version="1.0"?>
<svg xmlns="http://www.w3.org/2000/svg" xmlns:xlink="http://www.w3.org/1999/xlink" xmlns:svgjs="http://svgjs.com/svgjs" version="1.1" width="512" height="512" x="0" y="0" viewBox="0 0 512 512" style="enable-background:new 0 0 512 512" xml:space="preserve" class=""><g><g xmlns="http://www.w3.org/2000/svg"><path d="m384.544 497h-344.736c-9.649 0-17.5-7.851-17.5-17.5v-207.157c0-4.143-3.357-7.5-7.5-7.5s-7.5 3.357-7.5 7.5v207.157c0 17.921 14.579 32.5 32.5 32.5h344.736c4.143 0 7.5-3.357 7.5-7.5s-3.358-7.5-7.5-7.5z" fill="#ffffff" data-original="#000000" class=""/><path d="m362.382 319.624h81.099c7.041 0 12.768-5.727 12.768-12.768v-81.099c0-7.041-5.727-12.769-12.768-12.769h-81.099c-7.041 0-12.768 5.728-12.768 12.769v81.099c-.001 7.041 5.727 12.768 12.768 12.768zm2.231-91.636h76.636v76.636h-76.636z" fill="#ffffff" data-original="#000000" class=""/><path d="m202.683 444.303c0 7.041 5.728 12.769 12.768 12.769h81.1c7.04 0 12.768-5.727 12.768-12.769v-81.099c0-7.041-5.728-12.769-12.768-12.769h-81.1c-7.04 0-12.768 5.728-12.768 12.769zm15-78.868h76.635v76.636h-76.635z" fill="#ffffff" data-original="#000000" class=""/><path d="m55.751 444.303c0 7.041 5.728 12.769 12.769 12.769h81.099c7.041 0 12.769-5.727 12.769-12.769v-81.099c0-7.041-5.728-12.769-12.769-12.769h-81.099c-7.041 0-12.769 5.728-12.769 12.769zm15-78.868h76.636v76.636h-76.636z" fill="#ffffff" data-original="#000000" class=""/><path d="m349.613 444.303c0 7.041 5.727 12.769 12.768 12.769h81.099c7.041 0 12.768-5.727 12.768-12.769v-81.099c0-7.041-5.727-12.769-12.768-12.769h-81.099c-7.041 0-12.768 5.728-12.768 12.769zm15-78.868h76.636v76.636h-76.636z" fill="#ffffff" data-original="#000000" class=""/><path d="m296.55 212.988h-81.1c-7.04 0-12.768 5.728-12.768 12.769v81.099c0 7.041 5.728 12.768 12.768 12.768h81.1c7.04 0 12.768-5.727 12.768-12.768v-45.359l19.399-19.532c2.919-2.938 2.902-7.688-.036-10.606-2.939-2.919-7.688-2.902-10.607.036l-8.757 8.817v-14.453c0-7.043-5.727-12.771-12.767-12.771zm-2.233 91.636h-76.635v-76.636h76.635v27.325l-21.634 21.782-16.428-16.14c-2.953-2.902-7.701-2.86-10.606.095-2.902 2.955-2.86 7.703.095 10.607l21.749 21.366c1.46 1.434 3.358 2.149 5.256 2.149 1.928 0 3.855-.739 5.321-2.215l16.247-16.358z" fill="#ffffff" data-original="#000000" class=""/><path d="m149.618 212.988h-81.098c-7.041 0-12.769 5.728-12.769 12.769v81.099c0 7.041 5.728 12.768 12.769 12.768h81.099c7.041 0 12.769-5.727 12.769-12.768v-52.155l12.65-12.737c2.919-2.938 2.902-7.688-.036-10.606-2.94-2.919-7.689-2.902-10.607.036l-2.008 2.021v-7.658c0-7.041-5.728-12.769-12.769-12.769zm-2.231 91.636h-76.636v-76.636h76.636v20.529l-28.383 28.577-16.428-16.139c-2.953-2.902-7.703-2.861-10.605.094-2.903 2.954-2.861 7.703.094 10.605l21.748 21.366c1.46 1.435 3.358 2.15 5.256 2.15 1.928 0 3.855-.739 5.321-2.215l22.997-23.154z" fill="#ffffff" data-original="#000000" class=""/><path d="m472.192 48.95h-36.352v-17.724c0-17.218-14.008-31.226-31.227-31.226-17.218 0-31.226 14.008-31.226 31.226v17.724h-86.162v-17.724c.001-17.218-14.007-31.226-31.225-31.226s-31.226 14.008-31.226 31.226v17.724h-86.162v-17.724c0-17.218-14.008-31.226-31.225-31.226-17.219 0-31.227 14.008-31.227 31.226v17.724h-36.352c-17.921 0-32.5 14.579-32.5 32.5v158.206c0 4.143 3.357 7.5 7.5 7.5s7.5-3.357 7.5-7.5v-67.904h296.05c4.143 0 7.5-3.357 7.5-7.5s-3.357-7.5-7.5-7.5h-296.05v-75.302c0-9.649 7.851-17.5 17.5-17.5h36.352v17.725c0 17.218 14.008 31.226 31.227 31.226 17.218 0 31.226-14.008 31.226-31.226v-17.725h86.162v17.725c0 17.218 14.008 31.226 31.226 31.226s31.226-14.008 31.226-31.226v-17.725h86.162v17.725c0 17.218 14.008 31.226 31.226 31.226 17.219 0 31.227-14.008 31.227-31.226v-17.725h36.353c9.649 0 17.5 7.851 17.5 17.5v75.302h-138.651c-4.143 0-7.5 3.357-7.5 7.5s3.357 7.5 7.5 7.5h138.648v307.748c0 9.649-7.851 17.5-17.5 17.5h-54.961c-4.143 0-7.5 3.357-7.5 7.5s3.357 7.5 7.5 7.5h54.961c17.921 0 32.5-14.579 32.5-32.5v-398.05c0-17.921-14.579-32.5-32.5-32.5zm-348.58 32.725c0 8.947-7.278 16.226-16.226 16.226-8.947 0-16.227-7.278-16.227-16.226v-50.449c.001-8.948 7.28-16.226 16.228-16.226 8.947 0 16.226 7.278 16.226 16.226v50.449zm148.614 0c0 8.947-7.278 16.226-16.226 16.226s-16.226-7.278-16.226-16.226v-50.449c0-8.948 7.279-16.226 16.226-16.226s16.226 7.278 16.226 16.226zm148.614 0c0 8.947-7.279 16.226-16.227 16.226-8.947 0-16.226-7.278-16.226-16.226v-50.449c0-8.947 7.278-16.226 16.226-16.226 8.947 0 16.227 7.278 16.227 16.226z" fill="#ffffff" data-original="#000000" class=""/></g></g></svg>
