<svg id="Layer_1" enable-background="new 0 0 512 512" height="512" viewBox="0 0 512 512" width="512" xmlns="http://www.w3.org/2000/svg"><g><path d="m42.452 387.149h427.097c20.018-35.502 31.454-76.489 31.454-120.151 0-135.311-109.691-245.002-245.002-245.002s-245.002 109.691-245.002 245.002c-.001 43.663 11.434 84.649 31.453 120.151z" fill="#ffc839"/><path d="m234.79 344.818s14.849 6.514 21.21 15.858c6.361-9.344 21.21-15.858 21.21-15.858l59.79-30.41c-5.015-1.548-10.117-2.932-15.332-4.136-10.152-10.152-12.726-29.399-13.189-42.865-5.298 6.171-10.858 11.333-16.171 15.458-10.352 8.039-23.126 12.405-36.282 12.405s-25.93-4.366-36.281-12.405c-5.313-4.126-10.873-9.288-16.172-15.458-.463 13.466-3.037 32.713-13.189 42.865-5.227 1.206-10.339 2.594-15.365 4.146z" fill="#ffaa7b"/><path d="m253.542 295.217c-12.273-.513-24.099-4.821-33.797-12.352-5.313-4.126-10.874-9.288-16.172-15.459-.403 11.713-2.409 27.794-9.604 38.465 10.233 20.654 23.492 37.935 36.902 28.896 16.537-11.147 21.442-27.715 22.671-39.55z" fill="#fc9460"/><path d="m236.893 341.648-26.528-13.493c-11.288 3.433-26.702 12.396-27.246 35.792-7.623 1.32-46.006 9.763-46.006 45.624v71.682c35.207 19.583 75.74 30.747 118.887 30.747.856 0 1.706-.024 2.56-.032 0-54.597 0-140.417 0-148.653 0-12.167-21.667-21.667-21.667-21.667z" fill="#7e6dd1"/><path d="m138.612 482.076c0-18.79 0-48.326 0-72.505 0-38.743 45.991-44.338 45.991-44.338 0-24.597 16.517-33.147 27.644-36.12l-31.972-16.262c-68.457 22.323-101.153 31.25-118.201 43.419 17.748 12.113 45.66 37.275 45.66 75.772v30.005c9.744 7.419 20.067 14.115 30.878 20.029z" fill="#7255ce"/><path d="m331.725 312.851-56.618 28.797s-21.667 9.5-21.667 21.667v148.653c.854.009 1.704.032 2.56.032 11.492 0 22.796-.804 33.867-2.335l-.007-.005 69.782-20.617v.002c15.874-7.424 30.825-16.492 44.623-26.999 0-10.435 0-20.613 0-30.004 0-38.497 27.913-63.658 45.66-75.772-17.047-12.169-49.742-21.096-118.2-43.419z" fill="#9589e8"/><path d="m314.218 287.125c-1.151-.635-2.582.029-2.844 1.317-1.711 8.38-9.135 34.779-36.704 50.447-2.715 1.543-3.365 5.165-1.312 7.518l27.858 31.907c5.784 6.662 16.433 5.463 20.608-2.309 7.058-13.14 16.891-33.14 24.169-54.642 1.303-3.85.377-8.107-2.37-11.103-8.473-9.243-18.401-17.061-29.405-23.135z" fill="#b5b0f7"/><path d="m237.346 338.89c-6.633-3.77-12.09-8.164-16.592-12.775-6.708.569-35.884 4.873-37.554 36.284 2.485 5.058 4.865 9.649 6.992 13.608 4.175 7.772 14.824 8.971 20.608 2.309l27.857-31.907c2.054-2.354 1.403-5.977-1.311-7.519z" fill="#9589e8"/><path d="m200.642 288.443c-.263-1.288-1.694-1.953-2.844-1.317-11.004 6.074-20.932 13.892-29.405 23.135-2.746 2.996-3.673 7.253-2.37 11.103 5.502 16.255 12.462 31.645 18.581 43.868.001-37.08 37.554-37.706 37.554-37.706l.001-.003c-15.319-14.867-20.176-32.51-21.517-39.08z" fill="#7e6dd1"/><path d="m402.265 463.562c27.416-20.434 50.401-46.473 67.283-76.413-1.886-5.61-3.928-10.758-6.145-15.279-3.194-6.514-7.627-11.622-14.464-16.29-17.677 11.836-46.674 37.229-46.674 76.461z" fill="#b5b0f7"/><path d="m63.06 355.58c-6.837 4.669-11.271 9.776-14.464 16.29-2.216 4.521-4.258 9.669-6.145 15.279 16.882 29.94 39.867 55.98 67.283 76.413 0-10.966 0-21.674 0-31.521.001-39.232-28.997-64.625-46.674-76.461z" fill="#7e6dd1"/><path d="m347.642 420.625h-46.5c-6.6 0-12 5.4-12 12v73c0 1.416.261 2.771.718 4.035 24.619-3.404 48.067-10.463 69.782-20.617v-56.418c0-6.6-5.4-12-12-12z" fill="#b5b0f7"/><path d="m423.487 88.206c-23.26 17.194-52.201 46.18-39.932 82.497 19 56.244-67 91.713 29 132.478 38.384 16.3 60.687 33.306 73.645 47.851 9.572-26.211 14.803-54.51 14.803-84.034-.001-70.531-29.816-134.09-77.516-178.792z" fill="#ffdd40"/><path d="m88.513 88.206c23.26 17.194 52.201 46.18 39.932 82.497-19 56.244 67 91.713-29 132.478-38.384 16.3-60.688 33.306-73.645 47.851-9.572-26.211-14.803-54.51-14.803-84.034.001-70.531 29.816-134.09 77.516-178.792z" fill="#ffdd40"/><path d="m164.872 157.476h183.271c.325-13.205 2.527-48.157 16.328-73.055 1.919-3.463 2.262-7.577.926-11.304-5.008-13.962-19.966-46.602-52.588-55.308-1.738-.464-2.197-2.712-.783-3.823l4.889-3.841c2.216-1.742 1.365-5.28-1.403-5.813-24.069-4.642-104.004-15.75-128.834 35.307-1.482 3.047-4.275 5.241-7.555 6.09-7.225 1.87-20.22 7.506-28.69 24.395-1.657 3.303-1.939 7.134-.752 10.633 4.116 12.131 14.145 44.705 15.191 76.719z" fill="#56415e"/><path d="m246.877 76.772c-29.272-44.609 21.93-76.754 21.93-76.754-31.052.402-66.923 8.354-82.129 39.621-1.482 3.047-4.275 5.241-7.555 6.09-7.225 1.87-20.22 7.506-28.69 24.395-1.657 3.303-1.939 7.134-.752 10.633 4.116 12.131 14.145 44.705 15.191 76.719h42.66c27-21.871 56.739-54.196 39.345-80.704z" fill="#45304c"/><path d="m355.257 152.135c-4.103-3.76-13.276-1.854-16.81.448.774 4.821.818 9.753.149 14.623l-4.17 30.372c0 2.448-.077 4.85-.219 7.21 10.169 3.067 16.22-6.062 17.071-12.327.366-2.697.965-5.355 1.796-7.949 2.705-8.446 12.463-22.956 2.183-32.377z" fill="#ffaa7b"/><path d="m156.744 152.135c4.103-3.76 13.276-1.854 16.81.448-.774 4.821-.818 9.753-.149 14.623l4.17 30.372c0 2.448.077 4.85.219 7.21-10.169 3.067-16.22-6.062-17.071-12.327-.366-2.697-.965-5.355-1.796-7.949-2.705-8.446-12.463-22.956-2.183-32.377z" fill="#fc9460"/><path d="m336.937 143.2c-.939-2.449-2.122-4.929-3.613-7.268-2.525-3.962-3.636-8.648-3.297-13.32.973-13.438.451-39.721-17.19-47.659-14.987-6.744-33.372-2.839-45.096 1.059-7.333 2.439-15.255 2.522-22.632.263-13.358 10.252-13.672 33.335-12.769 45.626.345 4.698-.811 9.397-3.35 13.381-1.463 2.296-2.634 4.726-3.57 7.131-3.037 7.802-3.923 16.264-2.785 24.55l4.226 30.781c0 44.252 23.622 74.33 43.715 89.934 2.966 2.303 6.139 4.284 9.452 5.975 4.342-1.925 8.461-4.371 12.253-7.316 19.831-15.399 43.144-45.085 43.144-88.759l4.17-30.372c1.113-8.097.27-16.366-2.658-24.006z" fill="#ffc7ab"/><g><path d="m270.719 286.337c-19.831-15.399-43.144-45.085-43.144-88.759l-4.171-30.379c-1.123-8.177-.249-16.529 2.748-24.229.924-2.374 2.079-4.772 3.524-7.038 2.506-3.932 3.647-8.569 3.307-13.206-.92-12.516-.562-36.369 13.894-45.955-.879-.222-1.752-.472-2.617-.76-11.725-3.898-30.109-7.803-45.096-1.059-17.692 7.96-18.166 34.371-17.181 47.774.341 4.637-.801 9.274-3.307 13.206-1.444 2.266-2.6 4.664-3.524 7.038-2.997 7.7-3.871 16.052-2.748 24.229l4.171 30.379c0 43.674 23.314 73.359 43.144 88.759 10.351 8.038 23.125 12.404 36.281 12.404 8.885 0 17.592-1.999 25.5-5.767-3.801-1.812-7.42-4.027-10.781-6.637z" fill="#ffaa7b"/></g></g></svg>