<svg id="Layer_1" enable-background="new 0 0 512 512" height="512" viewBox="0 0 512 512" width="512" xmlns="http://www.w3.org/2000/svg"><g><path d="m473.004 380.801c17.871-34.007 27.998-72.719 27.998-113.803 0-135.311-109.691-245.002-245.002-245.002s-245.002 109.691-245.002 245.002c0 41.084 10.127 79.796 27.998 113.803z" fill="#ffc839"/><path d="m333.154 268.01c-15.183-10.196-40.374-21.6-77.164-21.6-37.13 0-62.452 11.62-77.592 21.891v.474c2.615-1.054 5.643-1.014 8.331.353 12.632 6.424 38.646 17.37 69.261 17.37s56.616-10.931 69.238-17.347c2.551-1.296 5.406-1.392 7.926-.498z" fill="#3e7fdd"/><path d="m432.314 332.234c-3.534-1.696-7.332-3.143-11.378-4.342l-65.15-24.863c-3.522-1.444-7.073-2.806-10.669-4.072-10.604 13.476-38.943 41.913-89.128 41.913-20.029 0-36.57-4.537-49.902-10.839.207.611.42 1.225.651 1.844-4.302 1.274-16.529 5.224-28.616 12.13-20.033 11.449-30.622 25.797-30.622 41.495v101.201c32.705 16.189 69.535 25.299 108.5 25.299 56.063 0 107.716-18.844 149.003-50.525 0-26.09 0-51.693 0-68.155 0-29.421 20.371-47.517 35.053-56.741-2.444-1.571-5.011-3.034-7.742-4.345z" fill="#548bed"/><path d="m149 487.442c0-20.447 0-72.638 0-101.942 0-37 59.732-52.633 59.732-52.633-.267-.662-.515-1.314-.751-1.96-21.148-9.509-34.535-23.585-41.115-31.944-3.581 1.261-7.119 2.617-10.627 4.055l-65.219 24.886c-4.011 1.191-7.778 2.627-11.286 4.306-2.75 1.317-5.333 2.788-7.792 4.369 14.682 9.225 35.053 27.32 35.053 56.741v68.155c13.032 9.999 27.097 18.715 42.005 25.967z" fill="#3e7fdd"/><path d="m255.989 302.762c22.365 0 42.274-21.594 56.441-27.256-2.727-8.766-3.709-18.462-3.977-26.237-5.298 6.171-10.858 11.333-16.171 15.458-10.352 8.039-23.125 12.405-36.282 12.405-13.156 0-25.93-4.366-36.281-12.405-5.313-4.126-10.874-9.288-16.172-15.458-.268 7.775-1.25 17.471-3.977 26.237 14.171 5.664 34.073 27.256 56.419 27.256z" fill="#ba7d54"/><path d="m238.568 284.276c-3.307-.43-6.516-.975-9.638-1.594-5.166 1.922-16.558 7.274-22.215 18.616-4.33 8.682-4.32 18.962.023 30.578-.04.012-.091.027-.132.04 13.022 5.971 28.991 10.254 48.144 10.433v-39.587c.001-9.346-6.914-17.283-16.182-18.486z" fill="#72aafc"/><path d="m173.501 271.878-9.331 15.493c-2.139 3.552-1.906 8.047.608 11.346 6.386 8.381 20.648 24.036 43.951 34.14-15.757-39.124 23.225-49.598 23.225-49.598l.006-.012c-19.872-3.515-36.072-10.529-45.227-15.186-4.725-2.401-10.499-.721-13.232 3.817z" fill="#548bed"/><path d="m347.791 287.389-9.341-15.491c-2.735-4.535-8.505-6.212-13.226-3.812-10.131 5.148-28.876 13.198-51.704 16.177-9.264 1.21-16.172 9.143-16.172 18.485v39.599c51.507-.528 80-30.698 89.839-43.607 2.514-3.301 2.746-7.799.604-11.351z" fill="#72aafc"/><path d="m72.917 335.94c-17.227 10.678-27.659 27.37-33.921 44.861 16.995 32.34 40.995 60.42 70.001 82.208 0-26.617 0-52.904 0-69.689 0-30.11-21.341-48.364-36.08-57.38z" fill="#548bed"/><path d="m439.083 335.94c-14.739 9.016-36.08 27.27-36.08 57.381v69.689c29.005-21.788 53.005-49.868 70-82.208-6.261-17.492-16.693-34.184-33.92-44.862z" fill="#72aafc"/><path d="m256 0c-51.769 0-94.125 42.356-94.125 94.125v43.869h188.25v-43.869c0-51.769-42.356-94.125-94.125-94.125z" fill="#56415e"/><path d="m245.531 58.27c-23.135-32.063 10.469-58.27 10.469-58.27-51.769 0-94.125 42.356-94.125 94.125v43.869h52.263c22.318-27.725 44.022-62.222 31.393-79.724z" fill="#45304c"/><path d="m355.256 133.998c-4.103-3.76-13.276-1.854-16.81.448.774 4.821.818 9.753.15 14.623l-4.17 30.372c0 2.448-.077 4.85-.219 7.211 10.169 3.067 16.22-6.062 17.071-12.327.366-2.697.965-5.355 1.796-7.949 2.705-8.447 12.462-22.957 2.182-32.378z" fill="#cc8c60"/><path d="m156.744 133.998c4.103-3.76 13.276-1.854 16.81.448-.774 4.821-.818 9.753-.149 14.623l4.17 30.372c0 2.448.077 4.85.219 7.211-10.169 3.067-16.22-6.062-17.071-12.327-.366-2.697-.965-5.355-1.796-7.949-2.705-8.447-12.463-22.957-2.183-32.378z" fill="#ba7d54"/><path d="m336.937 125.063c-.939-2.449-2.122-4.929-3.613-7.268-2.525-3.962-3.636-8.648-3.298-13.32.974-13.438.452-39.721-17.19-47.659-14.987-6.744-33.372-2.839-45.096 1.059-7.614 2.532-15.866 2.532-23.481 0-.328-.109-.662-.218-1-.327-10.594 11.366-10.803 32.254-9.965 43.798.348 4.783-.817 9.568-3.374 13.625-1.474 2.338-2.653 4.812-3.596 7.261-3.059 7.945-3.951 16.561-2.805 24.997l4.257 31.342c0 45.058 23.793 75.685 44.031 91.572 2.588 2.032 5.33 3.823 8.184 5.389 4.355-1.927 8.487-4.38 12.289-7.333 19.831-15.4 43.145-45.085 43.145-88.759l4.17-30.372c1.113-8.095.27-16.365-2.658-24.005z" fill="#dba783"/><g><path d="m272.017 268.065c-19.831-15.568-43.144-45.577-43.144-89.729l-4.171-30.711c-1.123-8.267-.249-16.709 2.749-24.494.924-2.4 2.079-4.824 3.523-7.115 2.506-3.975 3.647-8.663 3.307-13.35-.86-11.831-.604-33.685 11.251-44.397-.425-.125-.85-.254-1.271-.394-11.725-3.899-30.109-7.803-45.096-1.059-17.691 7.96-18.166 34.371-17.181 47.774.341 4.636-.801 9.274-3.307 13.206-1.444 2.266-2.599 4.664-3.524 7.038-2.997 7.701-3.871 16.052-2.748 24.229l4.171 30.379c0 43.674 23.314 73.359 43.144 88.759 10.351 8.038 23.125 12.404 36.281 12.404 9.153 0 18.118-2.118 26.213-6.111-3.589-1.778-7.009-3.926-10.197-6.429z" fill="#cc8c60"/></g><path d="m245.654 511.767c3.433.143 6.879.233 10.346.233 3.5 0 6.979-.091 10.444-.237v-170.892h-20.789v170.896z" fill="#3e7fdd"/><path d="m255.775 295.958c-7.27 0-13.218 5.948-13.218 13.218v25.602c0 7.27 5.948 13.218 13.218 13.218s13.218-5.948 13.218-13.218v-25.602c0-7.27-5.948-13.218-13.218-13.218z" fill="#94c5ff"/><g fill="#ffdd40"><path d="m411.6 77.746c-17.771 12.145-31.22 30.742-26.537 58.7 12.27 73.253-44.248 110.625 44.083 149.899 31.405 13.964 51.185 30.3 63.502 44.267 5.444-20.286 8.354-41.61 8.354-63.615 0-76.224-34.812-144.316-89.402-189.251z"/><path d="m100.4 77.746c17.771 12.145 31.22 30.742 26.537 58.7-12.27 73.253 44.248 110.625-44.083 149.899-31.405 13.964-51.185 30.3-63.502 44.267-5.444-20.286-8.354-41.61-8.354-63.615 0-76.224 34.812-144.316 89.402-189.251z"/></g></g></svg>